<svg version="1.1" xmlns="http://www.w3.org/2000/svg" xmlns:xlink="http://www.w3.org/1999/xlink" width="69.1564" height="80.4066" viewBox="0,0,69.1564,80.4066"><g transform="translate(-201.4218,-128.7499)"><g fill="#ffffff" stroke="#ffffff" stroke-width="2.5" stroke-miterlimit="10"><path d="M209.2187,172.8277c-3.6094,0 -6.5469,-2.9375 -6.5469,-6.5469v-29.734c0,-3.6094 2.9375,-6.5469 6.5469,-6.5469c3.6094,0 6.5469,2.9375 6.5469,6.5469v29.75c0,3.6094 -2.9375,6.5312 -6.5469,6.5312zM209.2187,133.0307c-1.9375,0 -3.5156,1.5781 -3.5156,3.5156v29.75c0,1.9375 1.5781,3.5156 3.5156,3.5156c1.9375,0 3.5156,-1.5781 3.5156,-3.5156v-29.75c0,-1.9375 -1.5781,-3.5156 -3.5156,-3.5156z"/><path d="M209.2187,207.90625c-0.84375,0 -1.5156,-0.42525 -1.5156,-0.95926v-36.17524c0,-0.53403 0.67188,-0.95926 1.5156,-0.95926c0.84372,0 1.5156,0.42525 1.5156,0.95926v36.18536c0,0.52413 -0.67188,0.94938 -1.5156,0.94938z"/><path d="M241.6557,168.0777c-5.2188,0 -10.125,-2.4531 -13.25,-6.5938h-14.156c-0.84375,0 -1.5156,-0.67188 -1.5156,-1.5156c0,-0.84372 0.67188,-1.5156 1.5156,-1.5156h14.938c0.5,0 0.96875,0.25 1.25,0.65625c2.5312,3.7188 6.7344,5.9219 11.234,5.9219c7.5156,0 13.641,-6.125 13.641,-13.641c0,-7.516 -6.125,-13.625 -13.641,-13.625c-4.4844,0 -8.6719,2.2031 -11.219,5.9062c-0.28125,0.40625 -0.75,0.65625 -1.25,0.65625h-14.953c-0.84375,0 -1.5156,-0.67188 -1.5156,-1.5156c0,-0.84372 0.67188,-1.5156 1.5156,-1.5156h14.188c3.1406,-4.125 8.0312,-6.5625 13.234,-6.5625c9.1875,0 16.672,7.4688 16.672,16.656c-0.01562,9.2031 -7.4844,16.688 -16.688,16.688z"/><path d="M235.5389,198.8277c-7.4688,0 -13.547,-6.0781 -13.547,-13.547c0,-7.4689 6.0781,-13.547 13.547,-13.547c7.4689,0 13.547,6.0781 13.547,13.547c0,7.4689 -6.0781,13.547 -13.547,13.547zM235.5389,174.7807c-5.7969,0 -10.516,4.7188 -10.516,10.516c0,5.7972 4.7188,10.516 10.516,10.516c5.7972,0 10.516,-4.7188 10.516,-10.516c-0.01562,-5.8125 -4.7188,-10.516 -10.516,-10.516z"/><path d="M260.5157,182.7807c-4.8594,0 -8.8125,-3.9531 -8.8125,-8.8125c0,-4.8594 3.9531,-8.8125 8.8125,-8.8125c4.8594,0 8.8125,3.9531 8.8125,8.8125c0,4.8594 -3.9531,8.8125 -8.8125,8.8125zM260.5157,168.1867c-3.1875,0 -5.7812,2.5938 -5.7812,5.7812c0,3.1874 2.5938,5.7812 5.7812,5.7812c3.1874,0 5.7812,-2.5938 5.7812,-5.7812c0,-3.1874 -2.5938,-5.7812 -5.7812,-5.7812z"/></g></g></svg>